<svg width="774" height="191" viewBox="0 0 774 191" fill="none" xmlns="http://www.w3.org/2000/svg">
<g opacity="0.3">
<path fill-rule="evenodd" clip-rule="evenodd" d="M81.4247 1C85.0414 1.00006 88.235 2.87826 90.1533 5.74627C95.1558 5.90271 100.094 7.08681 104.677 9.24527C110.522 11.9983 115.6 16.2467 119.434 21.5932C122.884 26.4037 125.225 31.962 126.291 37.8397C150.141 50.3921 166.745 75.6451 167.858 105.034H167.919V187H131.5V175.518C120.005 182.803 106.498 187 92.047 187C50.1439 187 16.1745 151.714 16.1745 108.186C16.1746 89.3106 22.5631 71.9853 33.2159 58.4148C31.4794 57.0555 29.5815 55.925 27.5638 55.0569C25.4922 54.1655 23.3215 53.5622 21.1085 53.255C19.3589 56.8537 15.7685 59.3217 11.6223 59.3218C5.7559 59.3218 1.0001 54.3821 1 48.2883C1 42.1945 5.75584 37.2543 11.6223 37.2543C14.5291 37.2543 17.1628 38.4677 19.0807 40.433C23.5887 40.6045 28.0354 41.6103 32.2099 43.4064C35.622 44.8746 38.8028 46.8504 41.6554 49.2649C55.0557 36.8899 72.7064 29.3729 92.047 29.3729C98.7674 29.3729 105.283 30.2818 111.488 31.9855C110.952 30.9972 110.356 30.0421 109.699 29.1271C107.092 25.4914 103.639 22.6019 99.664 20.7298C96.6502 19.3105 93.4108 18.5115 90.1241 18.3642C88.2028 21.208 85.0233 23.0675 81.4247 23.0675C75.5584 23.0675 70.8026 18.1278 70.8025 12.0341C70.8025 5.94021 75.5583 1 81.4247 1ZM92.047 67.2032C70.2574 67.2032 52.5936 85.5519 52.5935 108.186C52.5935 130.82 70.2574 149.169 92.047 149.169C113.836 149.169 131.5 130.82 131.5 108.186C131.5 104.47 131.024 100.869 130.131 97.4463C126.514 102.075 120.994 105.034 114.808 105.034C103.913 105.034 95.0814 95.8596 95.0814 84.5426C95.0814 78.1165 97.9296 72.3818 102.385 68.6248C99.0904 67.6979 95.6243 67.2032 92.047 67.2032Z" stroke="#98A0B2" stroke-linecap="round" stroke-linejoin="round" stroke-dasharray="6 6"/>
<path d="M652.609 187.002L693.671 114.552L653.01 43.333H683.055L710.897 95.2591H714.503L742.345 43.333H772.39L731.729 114.552L772.791 187.002H742.746L714.503 133.844H710.897L682.655 187.002H652.609Z" stroke="#98A0B2" stroke-linecap="round" stroke-linejoin="round" stroke-dasharray="6 6"/>
<path d="M591.887 189.872C582.006 189.872 573.259 187.751 565.648 183.509C558.17 179.131 552.294 173.042 548.021 165.243C543.881 157.307 541.812 148.002 541.812 137.33V134.867C541.812 124.194 543.881 114.959 548.021 107.159C552.16 99.2234 557.969 93.1346 565.447 88.8929C572.925 84.5144 581.605 82.3252 591.487 82.3252C601.235 82.3252 609.714 84.5829 616.925 89.0982C624.136 93.4767 629.744 99.6339 633.75 107.57C637.756 115.369 639.76 124.468 639.76 134.867V143.692H567.45C567.717 150.671 570.255 156.349 575.062 160.727C579.869 165.106 585.745 167.295 592.688 167.295C599.766 167.295 604.974 165.722 608.312 162.575C611.65 159.428 614.188 155.938 615.924 152.107L636.555 163.19C634.685 166.748 631.948 170.647 628.342 174.889C624.87 178.994 620.197 182.551 614.321 185.562C608.446 188.435 600.968 189.872 591.887 189.872ZM567.651 124.4H614.121C613.587 118.516 611.25 113.796 607.11 110.238C603.104 106.681 597.83 104.902 591.286 104.902C584.476 104.902 579.068 106.681 575.062 110.238C571.056 113.796 568.585 118.516 567.651 124.4Z" stroke="#98A0B2" stroke-linecap="round" stroke-linejoin="round" stroke-dasharray="6 6"/>
<path d="M496.848 187C490.305 187 484.964 184.947 480.824 180.842C476.818 176.601 474.815 170.991 474.815 164.013V106.545H449.978V85.2H474.815V53.5928H500.053V85.2H527.294V106.545H500.053V159.497C500.053 163.602 501.923 165.655 505.662 165.655H524.891V187H496.848Z" stroke="#98A0B2" stroke-linecap="round" stroke-linejoin="round" stroke-dasharray="6 6"/>
<path d="M338.1 186.998V85.1986H362.937V98.5393H366.543C368.145 94.9817 371.15 91.6295 375.556 88.4824C379.963 85.1986 386.64 83.5566 395.586 83.5566C403.332 83.5566 410.075 85.4038 415.817 89.0982C421.693 92.6557 426.233 97.6499 429.438 104.081C432.642 110.375 434.245 117.764 434.245 126.247V186.998H409.007V128.299C409.007 120.637 407.137 114.89 403.398 111.059C399.793 107.228 394.585 105.312 387.775 105.312C380.03 105.312 374.021 107.98 369.747 113.317C365.474 118.516 363.338 125.836 363.338 135.277V186.998H338.1Z" stroke="#98A0B2" stroke-linecap="round" stroke-linejoin="round" stroke-dasharray="6 6"/>
<path d="M200.734 187.002L237.59 43.333H283.66L320.515 187.002H293.274L285.663 155.395H235.587L227.976 187.002H200.734ZM241.796 130.355H279.453L262.428 60.368H258.822L241.796 130.355Z" stroke="#98A0B2" stroke-linecap="round" stroke-linejoin="round" stroke-dasharray="6 6"/>
</g>
</svg>
