<svg width="70" height="70" viewBox="0 0 70 70" fill="none" xmlns="http://www.w3.org/2000/svg">
<path d="M35.0008 0.51123H34.9995C15.9521 0.51123 0.51123 15.9521 0.51123 34.9995V35.0008C0.51123 54.0481 15.9521 69.489 34.9995 69.489H35.0008C54.0481 69.489 69.489 54.0481 69.489 35.0008V34.9995C69.489 15.9521 54.0481 0.51123 35.0008 0.51123Z" fill="black"/>
<path fill-rule="evenodd" clip-rule="evenodd" d="M33.373 19C34.0196 19 34.5904 19.3236 34.9332 19.8175C35.8271 19.8445 36.7096 20.0474 37.5285 20.4187C38.5731 20.8923 39.4806 21.6233 40.1658 22.543C40.7822 23.3705 41.1998 24.3266 41.3904 25.3376C45.653 27.497 48.6208 31.8419 48.8197 36.8983H48.8306V51H42.322V49.0247C40.2676 50.2778 37.8538 51 35.2713 51C27.7827 51 21.712 44.9293 21.712 37.4407C21.712 34.0801 22.9344 31.0051 24.959 28.6361C24.6242 28.382 24.2575 28.1711 23.8675 28.0095C23.4967 27.8559 23.1094 27.7484 22.7142 27.6891C22.4773 28.4674 21.7541 29.034 20.8983 29.034C19.85 29.0339 19 28.184 19 27.1356C19 26.0872 19.8499 25.2373 20.8983 25.2373C21.418 25.2373 21.8889 25.4463 22.2317 25.7846C23.0371 25.8142 23.8316 25.9868 24.5774 26.2957C25.1872 26.5483 25.7556 26.8883 26.2654 27.3037C28.6602 25.1745 31.8148 23.8813 35.2713 23.8813C36.6234 23.8813 37.9292 24.0793 39.1615 24.4477C39.0264 24.1686 38.8648 23.9018 38.6782 23.6513C38.1805 22.9832 37.5212 22.4523 36.7625 22.1082C36.2361 21.8696 35.6736 21.7262 35.1012 21.6827C34.8026 22.3396 34.1415 22.7966 33.373 22.7966C32.3246 22.7966 31.4746 21.9467 31.4746 20.8983C31.4746 19.8499 32.3246 19 33.373 19ZM35.2713 30.3897C31.3772 30.3897 28.2206 33.5466 28.2206 37.4407C28.2206 41.3347 31.3772 44.4916 35.2713 44.4916C39.1593 44.4916 42.3122 41.3445 42.322 37.4588V37.4223C42.3204 36.7895 42.235 36.1763 42.077 35.5931C41.4306 36.3892 40.4444 36.8983 39.339 36.8983C37.392 36.8983 35.8137 35.3199 35.8136 33.373C35.8136 32.2676 36.3223 31.2809 37.1184 30.6345C36.5297 30.4751 35.9105 30.3897 35.2713 30.3897Z" fill="white"/>
</svg>
