<svg width="154" height="37" viewBox="0 0 154 37" fill="none" xmlns="http://www.w3.org/2000/svg">
<path fill-rule="evenodd" clip-rule="evenodd" d="M16.0433 0C16.7647 1.21252e-05 17.4018 0.363534 17.7845 0.918633C18.7824 0.948912 19.7674 1.17809 20.6816 1.59586C21.8477 2.1287 22.8606 2.95096 23.6255 3.98578C24.3137 4.91684 24.7807 5.99265 24.9934 7.13027C29.7509 9.55975 33.0632 14.4474 33.2852 20.1356H33.2973V36H26.0325V33.7778C23.7393 35.1876 21.0449 36 18.1622 36C9.80333 36 3.02704 29.1704 3.02704 20.7457C3.02705 17.0924 4.30146 13.7391 6.4265 11.1125C6.08008 10.8494 5.70149 10.6306 5.299 10.4626C4.88574 10.2901 4.45274 10.1733 4.01128 10.1139C3.66227 10.8104 2.94605 11.2881 2.11895 11.2881C0.948715 11.2881 1.92697e-05 10.332 0 9.15258C0 7.97312 0.948704 7.01695 2.11895 7.01695C2.69881 7.01696 3.22418 7.25182 3.60677 7.63219C4.50604 7.66538 5.39308 7.86005 6.22581 8.2077C6.90647 8.49186 7.54097 8.87427 8.11001 9.3416C10.7831 6.94643 14.3041 5.49152 18.1622 5.49152C19.5028 5.49153 20.8026 5.66745 22.0404 5.99719C21.9335 5.80592 21.8144 5.62105 21.6835 5.44395C21.1634 4.74027 20.4746 4.181 19.6817 3.81867C19.0805 3.54396 18.4343 3.38932 17.7786 3.36082C17.3954 3.91123 16.7611 4.27112 16.0433 4.27113C14.873 4.27113 13.9243 3.31507 13.9243 2.13562C13.9243 0.956169 14.873 0 16.0433 0ZM18.1622 12.8135C13.8156 12.8135 10.292 16.3649 10.292 20.7457C10.292 25.1265 13.8156 28.6779 18.1622 28.6779C22.5088 28.6779 26.0325 25.1265 26.0325 20.7457C26.0325 20.0264 25.9374 19.3295 25.7594 18.667C25.0379 19.5629 23.9367 20.1356 22.7027 20.1356C20.5294 20.1356 18.7675 18.3599 18.7675 16.1695C18.7675 14.9258 19.3357 13.8158 20.2246 13.0887C19.5673 12.9093 18.8758 12.8135 18.1622 12.8135Z" fill="white"/>
<path d="M129.984 36.0012L138.176 21.9786L130.064 8.19434H136.058L141.612 18.2445H142.331L147.885 8.19434H153.879L145.767 21.9786L153.958 36.0012H147.965L142.331 25.7127H141.612L135.978 36.0012H129.984Z" fill="white"/>
<path d="M117.871 36.5567C115.9 36.5567 114.155 36.1462 112.637 35.3252C111.145 34.4778 109.973 33.2993 109.12 31.7898C108.295 30.2538 107.882 28.4529 107.882 26.3873V25.9106C107.882 23.8449 108.295 22.0574 109.12 20.5478C109.946 19.0118 111.105 17.8334 112.597 17.0124C114.088 16.1649 115.82 15.7412 117.791 15.7412C119.736 15.7412 121.427 16.1782 122.866 17.0521C124.304 17.8996 125.423 19.0913 126.222 20.6273C127.021 22.1368 127.421 23.8979 127.421 25.9106V27.6187H112.996C113.05 28.9693 113.556 30.0684 114.515 30.9158C115.474 31.7633 116.646 32.187 118.031 32.187C119.443 32.187 120.482 31.8825 121.147 31.2733C121.813 30.6642 122.32 29.9889 122.666 29.2474L126.781 31.3925C126.408 32.0811 125.862 32.8358 125.143 33.6568C124.451 34.4513 123.518 35.1398 122.346 35.7225C121.174 36.2786 119.682 36.5567 117.871 36.5567ZM113.036 23.8847H122.306C122.2 22.7459 121.734 21.8322 120.908 21.1437C120.109 20.4551 119.056 20.1109 117.751 20.1109C116.393 20.1109 115.314 20.4551 114.515 21.1437C113.716 21.8322 113.223 22.7459 113.036 23.8847Z" fill="white"/>
<path d="M98.9134 36.0004C97.6081 36.0004 96.5426 35.6031 95.7168 34.8087C94.9177 33.9877 94.5181 32.9019 94.5181 31.5513V20.4285H89.5635V16.2972H94.5181V10.1797H99.5527V16.2972H104.987V20.4285H99.5527V30.6773C99.5527 31.4718 99.9256 31.8691 100.671 31.8691H104.507V36.0004H98.9134Z" fill="white"/>
<path d="M67.2451 36.0005V16.2973H72.1998V18.8794H72.919C73.2386 18.1908 73.838 17.542 74.717 16.9329C75.5961 16.2973 76.928 15.9795 78.7127 15.9795C80.2577 15.9795 81.6029 16.337 82.7483 17.052C83.9204 17.7406 84.8261 18.7072 85.4654 19.9519C86.1047 21.1701 86.4244 22.6002 86.4244 24.2421V36.0005H81.3898V24.6394C81.3898 23.1563 81.0169 22.044 80.271 21.3025C79.5518 20.561 78.5129 20.1903 77.1544 20.1903C75.6094 20.1903 74.4107 20.7067 73.5583 21.7395C72.7059 22.7458 72.2797 24.1627 72.2797 25.99V36.0005H67.2451Z" fill="white"/>
<path d="M39.8438 36.0012L47.1958 8.19434H56.3858L63.7379 36.0012H58.3038L56.7854 29.8837H46.7962L45.2779 36.0012H39.8438ZM48.0349 25.0374H55.5468L52.1504 11.4914H51.4312L48.0349 25.0374Z" fill="white"/>
</svg>
