<svg width="136" height="36" viewBox="0 0 136 36" fill="none" xmlns="http://www.w3.org/2000/svg">
<path d="M107.571 35.0009L117.268 17.804L107.666 0.899414H114.761L121.335 13.2247H122.187L128.761 0.899414H135.856L126.255 17.804L135.951 35.0009H128.856L122.187 22.3834H121.335L114.666 35.0009H107.571Z" fill="white"/>
<path d="M93.232 35.6817C90.8986 35.6817 88.8332 35.1783 87.0358 34.1715C85.27 33.1322 83.8826 31.687 82.8735 29.8357C81.896 27.952 81.4072 25.7436 81.4072 23.2103V22.6257C81.4072 20.0924 81.896 17.9002 82.8735 16.049C83.851 14.1653 85.2227 12.72 86.9885 11.7132C88.7544 10.6739 90.804 10.1543 93.1374 10.1543C95.4393 10.1543 97.4417 10.6902 99.1445 11.7619C100.847 12.8012 102.172 14.2627 103.118 16.1464C104.064 17.9976 104.537 20.1574 104.537 22.6257V24.7205H87.4615C87.5246 26.3769 88.1237 27.7247 89.2589 28.764C90.3941 29.8033 91.7815 30.3229 93.4212 30.3229C95.0925 30.3229 96.3223 29.9494 97.1106 29.2024C97.8989 28.4554 98.498 27.6273 98.908 26.7179L103.78 29.3486C103.338 30.193 102.692 31.1186 101.841 32.1254C101.021 33.0997 99.917 33.9441 98.5296 34.6587C97.1421 35.3407 95.3763 35.6817 93.232 35.6817ZM87.5088 20.1412H98.4823C98.3561 18.7446 97.8043 17.6242 96.8268 16.7797C95.8808 15.9353 94.6353 15.5131 93.0901 15.5131C91.482 15.5131 90.2049 15.9353 89.2589 16.7797C88.3129 17.6242 87.7296 18.7446 87.5088 20.1412Z" fill="white"/>
<path d="M70.7897 34.9997C69.2446 34.9997 67.9833 34.5125 67.0058 33.5382C66.0598 32.5314 65.5868 31.1998 65.5868 29.5434V15.9028H59.7217V10.8363H65.5868V3.33398H71.5465V10.8363H77.9792V15.9028H71.5465V28.4717C71.5465 29.446 71.988 29.9331 72.8709 29.9331H77.4116V34.9997H70.7897Z" fill="white"/>
<path d="M33.3027 34.9994V10.836H39.1678V14.0026H40.0192C40.3976 13.1582 41.1071 12.3625 42.1477 11.6155C43.1883 10.836 44.7649 10.4463 46.8776 10.4463C48.7065 10.4463 50.2989 10.8847 51.6549 11.7616C53.0423 12.606 54.1144 13.7915 54.8712 15.3179C55.628 16.8119 56.0064 18.5657 56.0064 20.5793V34.9994H50.0467V21.0665C50.0467 19.2477 49.6052 17.8837 48.7223 16.9743C47.8709 16.0649 46.6411 15.6102 45.033 15.6102C43.204 15.6102 41.7851 16.2435 40.776 17.5102C39.767 18.7443 39.2624 20.4819 39.2624 22.7228V34.9994H33.3027Z" fill="white"/>
<path d="M0.866211 35.0009L9.56928 0.899414H20.4481L29.1512 35.0009H22.7185L20.9211 27.4986H9.09628L7.29891 35.0009H0.866211ZM10.5626 21.5552H19.4548L15.4344 4.94288H14.583L10.5626 21.5552Z" fill="white"/>
</svg>
