<svg width="140" height="140" viewBox="0 0 140 140" fill="none" xmlns="http://www.w3.org/2000/svg">
<path fill-rule="evenodd" clip-rule="evenodd" d="M65.7818 28.5186C67.4584 28.5186 68.9382 29.3576 69.8268 30.638C72.1444 30.7079 74.4324 31.2341 76.5555 32.1967C79.2637 33.4246 81.6163 35.3196 83.3927 37.7042C84.9908 39.8494 86.0737 42.3283 86.5677 44.9495C97.619 50.5479 105.313 61.8123 105.829 74.9216H105.857V111.482H88.983V106.36C83.6567 109.609 77.3988 111.481 70.7034 111.482C51.2885 111.481 35.5496 95.7426 35.5496 76.3277C35.5496 67.6152 38.7189 59.6429 43.9678 53.501C43.0997 52.8423 42.1492 52.2954 41.1381 51.8765C40.1766 51.4783 39.1725 51.1996 38.148 51.0458C37.5337 53.0637 35.6589 54.5325 33.4401 54.5325C30.7221 54.5325 28.5186 52.329 28.5186 49.611C28.5186 46.8929 30.7221 44.6894 33.4401 44.6894C34.7875 44.6894 36.0082 45.2312 36.8969 46.1084C38.9852 46.185 41.0448 46.6325 42.9786 47.4334C44.5595 48.0883 46.0331 48.9697 47.3548 50.0466C53.5636 44.5266 61.7421 41.1739 70.7034 41.1739C74.2088 41.1739 77.5943 41.6871 80.789 42.6422C80.4388 41.9186 80.02 41.2269 79.5362 40.5774C78.2458 38.8453 76.5365 37.4689 74.5694 36.577C73.2048 35.9583 71.7464 35.5865 70.2625 35.4738C69.4883 37.1767 67.7743 38.3617 65.7818 38.3617C63.0637 38.3617 60.8602 36.1582 60.8602 33.4401C60.8602 30.722 63.0637 28.5186 65.7818 28.5186ZM70.7034 58.0475C60.6077 58.0475 52.4237 66.232 52.4237 76.3277C52.4237 86.4234 60.6076 94.6079 70.7034 94.6079C80.7834 94.6079 88.9577 86.4488 88.983 76.3747V76.2801C88.9788 74.6394 88.7574 73.0498 88.3478 71.5376C86.672 73.6017 84.1152 74.9216 81.2493 74.9216C76.2015 74.9216 72.1096 70.8295 72.1095 65.7818C72.1095 62.916 73.4283 60.3579 75.4923 58.6821C73.9659 58.2688 72.3605 58.0475 70.7034 58.0475Z" fill="white"/>
</svg>
