<svg width="104" height="100" viewBox="0 0 104 100" fill="none" xmlns="http://www.w3.org/2000/svg">
<path d="M82.0342 99.3374L89.4831 86.4394L82.1069 73.7607H87.5573L92.608 83.0049H93.262L98.3127 73.7607H103.763L96.3869 86.4394L103.836 99.3374H98.3854L93.262 89.874H92.608L87.4846 99.3374H82.0342Z" fill="white"/>
<path d="M71.0196 99.8491C69.227 99.8491 67.6403 99.4715 66.2595 98.7164C64.903 97.9369 63.8371 96.8529 63.062 95.4645C62.311 94.0517 61.9355 92.3953 61.9355 90.4953V90.0569C61.9355 88.1569 62.311 86.5127 63.062 85.1242C63.8129 83.7114 64.8667 82.6275 66.2232 81.8723C67.5798 81.0929 69.1543 80.7031 70.9469 80.7031C72.7153 80.7031 74.2535 81.105 75.5616 81.9089C76.8697 82.6884 77.8871 83.7845 78.6138 85.1973C79.3405 86.5857 79.7039 88.2056 79.7039 90.0569V91.628H66.5866C66.635 92.8703 67.0953 93.8812 67.9673 94.6606C68.8394 95.4401 69.9053 95.8299 71.1649 95.8299C72.4488 95.8299 73.3935 95.5497 73.9991 94.9895C74.6047 94.4292 75.065 93.8081 75.3799 93.1261L79.1225 95.0991C78.7834 95.7324 78.2868 96.4267 77.6327 97.1818C77.0029 97.9125 76.1551 98.5459 75.0892 99.0818C74.0234 99.5933 72.6668 99.8491 71.0196 99.8491ZM66.6229 88.1934H75.0529C74.956 87.146 74.5321 86.3056 73.7811 85.6723C73.0544 85.039 72.0975 84.7223 70.9106 84.7223C69.6751 84.7223 68.6941 85.039 67.9673 85.6723C67.2406 86.3056 66.7925 87.146 66.6229 88.1934Z" fill="white"/>
<path d="M53.779 99.3376C52.592 99.3376 51.6231 98.9722 50.8721 98.2415C50.1454 97.4863 49.782 96.4876 49.782 95.2453V85.0147H45.2764V81.2147H49.782V75.5879H54.3604V81.2147H59.3021V85.0147H54.3604V94.4415C54.3604 95.1723 54.6995 95.5377 55.3778 95.5377H58.8661V99.3376H53.779Z" fill="white"/>
<path d="M24.9805 99.337V81.2142H29.4861V83.5892H30.1402C30.4309 82.9558 30.9759 82.359 31.7753 81.7988C32.5747 81.2142 33.7859 80.9219 35.4089 80.9219C36.8139 80.9219 38.0372 81.2507 39.0789 81.9084C40.1447 82.5417 40.9684 83.4308 41.5497 84.5757C42.1311 85.6962 42.4218 87.0115 42.4218 88.5218V99.337H37.8434V88.8872C37.8434 87.5231 37.5043 86.5 36.826 85.818C36.172 85.1359 35.2272 84.7949 33.9918 84.7949C32.5868 84.7949 31.4967 85.2699 30.7216 86.2199C29.9464 87.1455 29.5588 88.4487 29.5588 90.1295V99.337H24.9805Z" fill="white"/>
<path d="M0.0615234 99.3374L6.74736 73.7607H15.1047L21.7905 99.3374H16.8488L15.468 93.7105H6.384L5.00323 99.3374H0.0615234ZM7.51042 89.2529H14.3416L11.253 76.7934H10.599L7.51042 89.2529Z" fill="white"/>
<path fill-rule="evenodd" clip-rule="evenodd" d="M48.1634 0C49.4756 2.23053e-05 50.6343 0.668754 51.3302 1.68991C53.1452 1.74561 54.9367 2.16721 56.5995 2.93572C58.7203 3.91593 60.5626 5.42856 61.9538 7.3322C63.2054 9.04496 64.0548 11.024 64.4415 13.1168C73.0944 17.586 79.1188 26.5774 79.5225 37.0413H79.5445V66.2252H66.3315V62.1372C62.1607 64.7307 57.2602 66.2252 52.0173 66.2252C36.8144 66.2252 24.4899 53.6615 24.4899 38.1635C24.4899 31.4429 26.8077 25.2743 30.6727 20.4425C30.0426 19.9585 29.3541 19.556 28.622 19.2469C27.8704 18.9295 27.0829 18.7147 26.28 18.6053C25.6452 19.8867 24.3426 20.7654 22.8383 20.7654C20.7099 20.7654 18.9844 19.0067 18.9844 16.837C18.9844 14.6673 20.7098 12.9083 22.8383 12.9083C23.8929 12.9083 24.8484 13.3404 25.5443 14.0401C27.1798 14.1011 28.7932 14.4593 30.3077 15.0988C31.5457 15.6215 32.6997 16.325 33.7346 17.1847C38.5964 12.7786 45.0003 10.1021 52.0173 10.1021C54.4555 10.1021 56.8196 10.4258 59.0708 11.0324C58.8764 10.6805 58.6598 10.3404 58.4218 10.0146C57.4758 8.72014 56.223 7.69133 54.7808 7.02478C53.6874 6.51943 52.5121 6.23496 51.3196 6.18252C50.6226 7.19506 49.469 7.8571 48.1634 7.85712C46.035 7.85712 44.3096 6.09836 44.3095 3.92867C44.3095 1.75896 46.035 0 48.1634 0ZM52.0173 23.5716C44.1118 23.5716 37.7031 30.1046 37.7031 38.1635C37.7031 46.2225 44.1118 52.7555 52.0173 52.7555C59.9228 52.7555 66.3315 46.2224 66.3315 38.1635C66.3315 36.8404 66.1585 35.5584 65.8347 34.3396C64.5225 35.9877 62.5198 37.0413 60.2753 37.0413C56.3226 37.0412 53.1182 33.7747 53.1182 29.7453C53.1182 27.4573 54.1516 25.4155 55.7682 24.0778C54.5727 23.7477 53.3152 23.5716 52.0173 23.5716Z" fill="white"/>
</svg>
